<?xml version="1.0" encoding="UTF-8" standalone="no"?><!DOCTYPE svg PUBLIC "-//W3C//DTD SVG 1.1//EN" "http://www.w3.org/Graphics/SVG/1.1/DTD/svg11.dtd"><svg width="100%" height="100%" viewBox="0 0 369 369" version="1.1" xmlns="http://www.w3.org/2000/svg" xmlns:xlink="http://www.w3.org/1999/xlink" xml:space="preserve" xmlns:serif="http://www.serif.com/" style="fill-rule:evenodd;clip-rule:evenodd;stroke-linejoin:round;stroke-miterlimit:2;"><g><path d="M117.839,54.449c-1.757,-1.756 -4.608,-1.756 -6.364,0l-57.276,57.276c-1.756,1.756 -1.756,4.607 0,6.364l86.974,86.974c1.756,1.756 4.608,1.756 6.364,0l57.276,-57.276c1.756,-1.756 1.756,-4.608 0,-6.364l-86.974,-86.974Z"/><path d="M192.466,166.553c-9.687,-9.687 -9.776,-9.371 -22.655,3.508c-12.879,12.879 -13.548,13.322 -3.862,23.008l149.653,169.452c9.686,9.687 28.007,7.095 40.885,-5.784c12.879,-12.878 15.471,-31.199 5.784,-40.885l-169.805,-149.299Z"/><path d="M150.408,6.408c-7.048,-7.048 -18.493,-7.048 -25.541,0l-4.157,4.158c-7.049,7.048 -7.049,18.493 0,25.541l102.445,102.445c7.048,7.048 18.493,7.048 25.541,0l4.158,-4.157c7.048,-7.049 7.048,-18.493 0,-25.541l-102.446,-102.446Z"/><path d="M35.857,120.96c-7.048,-7.049 -18.493,-7.049 -25.541,0l-4.158,4.157c-7.048,7.048 -7.048,18.493 0,25.541l102.446,102.446c7.048,7.048 18.492,7.048 25.541,0l4.157,-4.158c7.048,-7.048 7.048,-18.493 0,-25.541l-102.445,-102.445Z"/></g></svg>