<?xml version="1.0" encoding="UTF-8" standalone="no"?>
<!DOCTYPE svg PUBLIC "-//W3C//DTD SVG 1.1//EN" "http://www.w3.org/Graphics/SVG/1.1/DTD/svg11.dtd">
<svg width="100%" height="100%" viewBox="0 0 369 369" version="1.1" xmlns="http://www.w3.org/2000/svg" xmlns:xlink="http://www.w3.org/1999/xlink" xml:space="preserve" xmlns:serif="http://www.serif.com/" style="fill-rule:evenodd;clip-rule:evenodd;stroke-linejoin:round;stroke-miterlimit:2;">
    <g>
        <path d="M117.839,54.449C116.082,52.693 113.231,52.693 111.475,54.449L54.199,111.725C52.443,113.481 52.443,116.332 54.199,118.089L141.173,205.063C142.929,206.819 145.781,206.819 147.537,205.063L204.813,147.787C206.569,146.031 206.569,143.179 204.813,141.423L117.839,54.449Z" style="fill:rgb(229,231,235);"/>
        <path d="M192.466,166.553C182.779,156.866 182.69,157.182 169.811,170.061C156.932,182.94 156.263,183.383 165.949,193.069L315.602,362.521C325.288,372.208 343.609,369.616 356.487,356.737C369.366,343.859 371.958,325.538 362.271,315.852L192.466,166.553Z" style="fill:rgb(229,231,235);"/>
        <path d="M150.408,6.408C143.36,-0.64 131.915,-0.64 124.867,6.408L120.71,10.566C113.661,17.614 113.661,29.059 120.71,36.107L223.155,138.552C230.203,145.6 241.648,145.6 248.696,138.552L252.854,134.395C259.902,127.346 259.902,115.902 252.854,108.854L150.408,6.408Z" style="fill:rgb(229,231,235);"/>
        <path d="M35.857,120.96C28.809,113.911 17.364,113.911 10.316,120.96L6.158,125.117C-0.89,132.165 -0.89,143.61 6.158,150.658L108.604,253.104C115.652,260.152 127.096,260.152 134.145,253.104L138.302,248.946C145.35,241.898 145.35,230.453 138.302,223.405L35.857,120.96Z" style="fill:rgb(229,231,235);"/>
    </g>
</svg>
